<svg xmlns="http://www.w3.org/2000/svg" version="1.1" xmlns:xlink="http://www.w3.org/1999/xlink" xmlns:svgjs="http://svgjs.com/svgjs" width="512" height="512" x="0" y="0" viewBox="0 0 512 512" style="enable-background:new 0 0 512 512" xml:space="preserve"><g><g xmlns="http://www.w3.org/2000/svg"><g><path d="m509.071 166.929-51.071-51.072v-105.857c0-5.523-4.477-10-10-10h-146.619c-5.523 0-10 4.477-10 10s4.477 10 10 10h136.619v189.578l-182.455 134.614-181.545-133.723v-190.469h136.678c5.523 0 10-4.477 10-10s-4.477-10-10-10h-146.678c-5.523 0-10 4.477-10 10v105.857l-51.071 51.072c-1.875 1.875-2.929 4.419-2.929 7.071v328c0 5.523 4.477 10 10 10h492c5.523 0 10-4.477 10-10v-328c0-2.652-1.054-5.196-2.929-7.071zm-17.071 310.928-163.003-163.003 163.003-120.262zm-34-333.715 29.164 29.163-29.164 21.517zm-202.45 222.474c2.086 0 4.172-.651 5.937-1.953l51.234-37.8 165.136 165.137h-443.714l164.719-164.719 50.757 37.387c1.764 1.298 3.847 1.948 5.931 1.948zm-72.976-51.333-162.574 162.574v-282.324zm-128.574-119.546-29.71-21.884 29.71-29.711z" fill="#000000" data-original="#000000"></path><path d="m249.563 99.23v96c0 5.523 4.477 10 10 10s10-4.477 10-10v-96c0-5.523-4.477-10-10-10s-10 4.477-10 10z" fill="#000000" data-original="#000000"></path><path d="m156.501 89.23c-5.523 0-10 4.477-10 10s4.477 10 10 10h42.131l-52.479 80.541c-2.003 3.074-2.162 6.998-.414 10.224 1.749 3.226 5.123 5.235 8.792 5.235h64.042c5.523 0 10-4.477 10-10s-4.477-10-10-10h-45.591l52.479-80.541c2.003-3.074 2.162-6.998.414-10.224-1.749-3.226-5.123-5.235-8.792-5.235z" fill="#000000" data-original="#000000"></path><path d="m313.115 195.23v-31.754c5.86-.031 12.901-.064 16.73-.064 20.745 0 37.622-16.639 37.622-37.091s-16.877-37.091-37.622-37.091h-26.73c-2.658 0-5.206 1.058-7.083 2.94-1.868 1.875-2.916 4.414-2.916 7.06h-.002v96c0 5.523 4.477 10 10 10s10.001-4.477 10.001-10zm16.73-86c9.552 0 17.622 7.827 17.622 17.091s-8.07 17.091-17.622 17.091c-3.814 0-10.761.032-16.6.062-.031-6.021-.083-27.967-.1-34.245h16.7z" fill="#000000" data-original="#000000"></path><circle cx="255.68" cy="10.004" r="10" fill="#000000" data-original="#000000"></circle></g></g></g></svg>